<?xml version="1.0" encoding="UTF-8"?>
<svg id="Layer_2" data-name="Layer 2" xmlns="http://www.w3.org/2000/svg" viewBox="0 0 587.45 589.98">
  <defs>
    <style>
      .cls-1 {
        stroke: #000;
      }

      .cls-1, .cls-2 {
        fill: none;
        stroke-miterlimit: 10;
      }

      .cls-3 {
        fill: #c77133;
      }

      .cls-2 {
        stroke: #a1a0bf;
        stroke-width: .5px;
      }
    </style>
  </defs>
  <g id="Address_Map" data-name="Address Map">
    <g>
      <circle class="cls-3" cx="483.76" cy="432.95" r="9.12"/>
      <g>
        <path d="M505.17,437.46c.82,0,1.33-.14,1.92-.42v-3.75h.8v4.28c-.83,.46-1.67,.71-2.73,.71-2.3,0-4.32-1.82-4.32-4.62s1.98-4.63,4.35-4.63c.89,0,1.8,.23,2.51,.62v.92c-.79-.47-1.59-.72-2.52-.72-1.91,0-3.49,1.52-3.49,3.79s1.55,3.81,3.48,3.81Z"/>
        <path d="M515.18,435.2h-4.91c.13,1.4,1.04,2.28,2.36,2.28,.74,0,1.52-.28,2.22-.91v.91c-.66,.52-1.42,.77-2.25,.77-1.91,0-3.14-1.32-3.14-3.32s1.44-3.37,3.05-3.37c1.49,0,2.7,1.1,2.7,3.21,0,.17-.01,.3-.02,.43Zm-.77-.71c-.04-1.51-.96-2.18-1.92-2.18-1.09,0-2.06,.84-2.21,2.18h4.13Z"/>
        <path d="M516.91,431.68h.65l.1,1.04h.01c.44-.85,1.29-1.12,1.87-1.12,.16,0,.29,.01,.41,.02v.79c-.13-.02-.28-.04-.42-.04-.89,0-1.8,.59-1.8,1.87v3.85h-.82v-6.43Z"/>
        <path d="M526.3,433.86v4.25h-.82v-3.9c0-1.26-.58-1.86-1.66-1.86-1,0-1.78,.74-1.78,1.79v3.97h-.82v-6.43h.62l.11,1h.02c.36-.6,1.07-1.13,1.99-1.13,1.39,0,2.31,.91,2.31,2.31Z"/>
        <path d="M533.68,435.2h-4.91c.13,1.4,1.04,2.28,2.36,2.28,.74,0,1.52-.28,2.22-.91v.91c-.66,.52-1.42,.77-2.25,.77-1.91,0-3.14-1.32-3.14-3.32s1.44-3.37,3.05-3.37c1.49,0,2.7,1.1,2.7,3.21,0,.17-.01,.3-.02,.43Zm-.77-.71c-.04-1.51-.96-2.18-1.92-2.18-1.09,0-2.06,.84-2.21,2.18h4.13Z"/>
        <path d="M535.41,431.68h.65l.1,1.04h.01c.44-.85,1.29-1.12,1.87-1.12,.16,0,.29,.01,.41,.02v.79c-.13-.02-.28-.04-.42-.04-.89,0-1.8,.59-1.8,1.87v3.85h-.82v-6.43Z"/>
        <path d="M543.36,437.45c.89,0,1.47-.59,1.47-1.75v-6.5h.82v6.63c0,1.42-.88,2.41-2.25,2.41-.6,0-1.21-.22-1.62-.61v-.98c.36,.42,.88,.8,1.58,.8Z"/>
        <path d="M547.46,434.9c0-2.06,1.42-3.35,2.94-3.35,.91,0,1.85,.44,2.36,1.39l.11-1.26h.66v6.43h-.66l-.11-1.26c-.52,.95-1.45,1.39-2.36,1.39-1.52,0-2.94-1.29-2.94-3.35Zm5.28-.01c0-1.51-1-2.55-2.23-2.55s-2.23,1.02-2.23,2.57,.98,2.57,2.23,2.57,2.23-1.04,2.23-2.58Z"/>
        <path d="M556.5,432.51h.01c.37-.59,1.08-.96,1.88-.96,1.43,0,2.35,.79,2.35,2.33v4.23h-.82v-3.92c0-1.25-.54-1.86-1.64-1.86-.94,0-1.79,.54-1.79,1.74v4.04h-.82v-9.57h.82v3.97Z"/>
        <path d="M567.9,433.86v4.25h-.82v-3.9c0-1.26-.58-1.86-1.66-1.86-1,0-1.78,.74-1.78,1.79v3.97h-.82v-6.43h.62l.11,1h.02c.36-.6,1.07-1.13,1.99-1.13,1.39,0,2.31,.91,2.31,2.31Z"/>
        <path d="M572.73,437.46c.54,0,1.21-.12,1.75-.54v.89c-.46,.26-1.04,.43-1.75,.43-1.83,0-3.19-1.45-3.19-3.36s1.36-3.33,3.19-3.33c.67,0,1.25,.12,1.75,.46v.89c-.54-.41-1.07-.56-1.76-.56-1.2,0-2.36,.96-2.36,2.55s1.16,2.58,2.38,2.58Z"/>
        <path d="M580.17,438.11l-3.14-3.32v3.32h-.82v-9.57h.82v6.13l3.02-2.99h1.1l-3.13,3.05,3.24,3.38h-1.09Z"/>
        <path d="M587.43,435.2h-4.91c.13,1.4,1.04,2.28,2.36,2.28,.74,0,1.52-.28,2.22-.91v.91c-.66,.52-1.42,.77-2.25,.77-1.91,0-3.14-1.32-3.14-3.32s1.44-3.37,3.05-3.37c1.49,0,2.7,1.1,2.7,3.21,0,.17-.01,.3-.02,.43Zm-.77-.71c-.04-1.51-.96-2.18-1.92-2.18-1.09,0-2.06,.84-2.21,2.18h4.13Z"/>
      </g>
      <path class="cls-1" d="M.87,381.3c-.91-3.14-.1-6.72,2.06-9.18,1.59-1.8,3.78-2.96,5.48-4.65,3.11-3.08,4.29-7.62,4.62-11.99,.5-6.58-.68-13.27-3.3-18.99,2.81-3.78,5.64-7.58,7.79-11.77s3.62-8.83,3.52-13.54c-.09-4.4-1.54-8.72-1.38-13.12,.1-2.63,.76-5.4-.28-7.82-.59-1.37-1.69-2.49-2.16-3.91-.6-1.8-.1-3.76,.21-5.63,.76-4.73,.19-9.56,.06-14.35s-.92-5.74,2-12.9c.74-1.81-1.11-4.99-1.32-7.91-.19-2.61,.83-6.56,.04-9.06-.78-2.47-2.27-4.68-3.8-6.77-.49-.67-1.15-5.97-.16-8.73,.88-2.45,1.87-4.68,2.32-6.72,.48-4.59-1.79-12.36-1.79-12.36,0,0-1.37-10.57,.33-14.86,1.48-3.75,3.75-6.77,4.36-10.76,.35-2.26,.14-8.33,.07-10.04-.01-.3,.03-.59,.13-.87,.51-1.45,2.18-6.44,2.41-10.63,.08-1.56,.41-4.14,.62-5.69s1.77-1.73,1.91-4"/>
      <path class="cls-1" d="M24.48,145.71c.34-4.22,3.65-7.51,5.31-11.41,2.41-5.64,5.03-12.91,8.12-19.1,3.39-6.79,8.25-12.78,12.94-18.19,4.36-5.51,6.16-12.84,8.33-19.52,1.97-6.08,4.34-11.27,7.84-16.22,.53-.75,.89-1.62,.96-2.53,.36-4.82,1.89-9.93,4.09-14.24,.47-.92,.76-1.92,1.11-2.96,.29-.86,.02-1.82-.69-2.39-.67-.54-1.24-1.53-1.61-1.86-.88-.79-1.67-1.46-2.07-2.57-.42-1.18-.6-5.55-.6-8.07,0-3.95,.52-3.94,2.07-7.58,.32-.75,.69-1.51,1.33-2.01s1.86-1.36,2.51-.87c.35,.27,1.25,1.13,1.29,1.12,.06-.01,.36-.99,.47-1.47,.23-1.04,2.18-1.89,2.74-2.79,1.15-1.86,1.86-4.62,3.23-6.19,2.56-2.94,5.81-4.12,9.24-6.24,.32-.2,.73-.2,1.03,.02,3.47,2.53,5.36,6.97,4.17,11.11-.22,.75-.52,1.49-.58,2.27s.15,1.64,.78,2.11c.6,.44,1.4,.43,2.12,.61,3.02,.77,4.07,4.77,6.88,6.12,1.48,.71,3.2,.57,4.84,.62s3.45,.42,4.4,1.76c1.28,1.82,.37,4.59,1.71,6.37,1.01,1.34,2.91,1.6,4.25,2.61,1.44,1.09,2.05,2.92,2.85,4.54,.62,1.26,1.36,2.88,2.47,3.56,.6,.37,1.08,.9,1.24,1.59,1.58,6.65,7.87,14.38,10.21,17.99s1.23,5.6,1.68,9.71c.47,4.29,4.42,11.86,7.09,14.67,.17,.18,.37,.31,.59,.42,3.86,1.89,7.19,3.94,10.11,7.12,1.06,1.16,2.2,2.03,2.73,2.47,.13,.1,.76,.51,.98,.52,1.68,.06,5.55,.57,7.68,.48,1.34-.05,2.53,.7,3.83,1.34,1.05,.51,2.53,1.52,3.39,2.11,1.95,1.33,2.15,3.68,3.17,5.83,.64,1.34,3.3,2.12,3.98,2.2,.1,.01,.19,.04,.28,.08,1,.46,7.27,2.88,10.77,2.97,.97,.02,1.97-.03,2.87,.34,1.42,.59,2.21,2.07,3.21,3.24s2.51,2.49,3.66,1.91c2.38,1.14,3.83,3.42,4.59,5.94s1.25,5.22,2.82,7.34c2.37,3.21,6.57,4.32,10.11,6.18,4.91,2.58,8.87,6.85,14.04,8.86,6.54,2.55,14.33,1.2,20.41,4.71,4.41,2.55,7.1,7.18,10.52,10.95,3.21,3.53,6.98,6.72,10.93,8.46,.33,.15,.69,.25,1.05,.29,4.68,.57,9.78-1.35,13.24-4.56,1.7-1.57,3.15-3.58,5.34-4.33,1.35-.46,2.78-.63,4.18-.9,.7-.14,2.05,.48,2.4,0,.54-.74-.34-.74,.23-1.47,.38-.49,1.12-.51,1.55-.06,.86,.88,1.97,1.77,2.49,2.9,.48,1.03,1.26,2.87,1.84,3.71,.24,.35,.71,.48,1.09,.28,.48-.25,1.3-.87,1.57-.81,.67,.16,1.46,.15,1.72,.79s.67,.71,1.28,1.04,.95-.11,.91,.58c-.13,2.09,.39,3.88,.82,4.57,.12,.2,.29,.37,.48,.5,.29,.19,.97,.43,1.4,.57,.24,.08,.41,.29,.44,.54,.09,.88-.01,2.98,.03,3.93,.11,2.12,1.77,3.62,3.1,5.36s1.71,4.6,2.92,6.02c1.46,1.71,2.45,3.73,2.74,5.97,.56,4.46,2.84,6.47,5.76,8.9,4.89,4.09,14.31,10.65,16.02,11.98,.19,.14,.33,.32,.44,.53,.64,1.23,3.06,5.82,4.87,7.95,1.98,2.33,4.28,4.62,7.19,4.52,.31-.01,.58,.17,.69,.46,.97,2.71,3.81,4.41,6.35,5.76,1.77,.94,4.78,2.18,6.7,2.74,2.9,.85,5.42,1.85,8.43,2.27,.23,.03,.44,.15,.59,.34,3.22,4.18,7.63,8.93,12.22,11.44,1.82,.99,3.71,2.11,5.16,3.59,1.84,1.87,3.48,4.51,4.74,5.67,.36,.33,1.61,.86,2.09,.86,.94,0,2.77,.13,4.57,.82s3.57,2.23,4.52,3.18c1.5,1.5,2.97,4.86,5.13,5.04,1.69,.14,2.76,1.11,3.08,1.47,.18,.21,.46,.28,.67,.46,1.34,1.08,4.85,2.79,7.13,3.29,.46,.1,2.54,.27,3.71,1.03,.74,.48,.71,2,.73,2.91,0,.63,.52,1.17,1.15,1.17,.98,0,2.29,.1,2.97,.62,1.05,.79,2.2,1.44,3.5,1.6s2.66-.06,3.9-.48c.74-.25,1.11,.55,1.28,1.15,.11,.38,.39,.69,.77,.8,.86,.25,1.4-.58,2.05-.39,.5,.14,1.32,2.06,1.99,2.2,.6,.12,1.05-1.53,1.52-1.5,1.12,.07,1.24,1.47,1.45,2.57s.41,2.57,1.5,2.34c.24-.05,.88-.35,1.45-.82,.31-.25,.75-.26,1.06-.02s1.02,.2,1.7,.42c.28,.09,1.74-.17,1.96-.07,.51,.21,.75,.5,1.03,.97,.45,.75,.28,1.6,.4,2.56,.09,.7,1.74-.05,2.42-.21s1.48-.67,2.06-.27c1.51,1.03,2.79,1.12,4.14,1.87,.92,.51,1.98,.58,3,.61,.48,.02,1.16-.06,1.6-.28,1.12-.54,1.7-1.97,2.83-2.49,1.45-.67,2.31,.02,3.97,1.22h0c.98,.71,2.89,.55,4.07-.18,.67-.41,1.31,.16,1.25,.95-.15,2.11,.15,4.1,1.56,5.35,.69,.62,2.05,.8,2.93,.51,.65-.22,1.04-.26,1.56-.65,.41-.3,1-.21,1.23,.24,1.48,2.83,1.74,7.55,.25,8.84-.71,.61,.5,2.51-.02,3.3-.38,.58-.19,1.39,.32,1.85,.58,.52,1.49,.33,1.9-.35,.28-.47,1.24-1.06,1.7-1.33,.16-.1,.37-.03,.45,.14,.16,.32,.4,.83,.54,1.28,.25,.81,1.27,1.06,1.85,.45,.27-.28,.69-.61,.97-.69,1.47-.42,1.45,2.53,3.36,2.4,.05,0-.15,.58-.21,.72-.47,1.16-.77,2.03-.66,3.84,.05,.77-.55,1.73-.85,2.44-.28,.67-.89,1.95-1.54,1.8-.05-.01-.09,.03-.07,.07,1.1,2.9,2.33,5.57,3.8,7.87,.11,.17,.14,.39,.05,.57-.85,1.79-3.52,2.36-5.36,2.99-1.94,.66-3.84,2.54-4.18,4.57-.12,.75,.29,1.73,.63,2.38,.22,.43,.16,.95-.17,1.31-1.33,1.5-3.99,6.19-4.14,7.67-.14,1.31,1.9,2.33,1.98,3.64,.05,.89-.94,1.72-1.21,2.57-.16,.5,.07,1.53,.28,2.28,.14,.51,.57,1.12,1.05,1.34s2.25-.23,2.56-.15c1.16,.3,.71,.96,.94,2.14s-.28,2.47-1.24,3.19c-.77,.57-1.88,.92-2.07,1.85-.16,.78,1.31,1.78,1.75,2.45,1.81,2.72,.23,6.12,1.46,9.15,1.07,2.64,3.48,4.46,5.36,6.6s3.31,5.27,1.96,7.79c-.38,.71-.95,1.49-1.36,2-.3,.38-.36,.9-.16,1.34,.42,.92,1.71,2.32,2.17,2.36,.99-.04,1.03,1.23,.9,2.22-.08,.63-.79,1.46-1.28,1.97-.29,.3-.38,.74-.24,1.14,.32,.9,.86,2.47,.97,3.29,.44,3.11-.24,5.3-3.2,8.26-1.07,1.07-.58,3.25-1.56,4.38-3.06,3.5-7.54,5.79-10.64,9.25s-5.05,5.87-5.3,9.38c-.03,.45-.42,2.15-.59,2.93-.06,.29,.72,0,.97,1.07,.11,.49-.33,.75-.82,.88-.53,.14-.92,.03-1.22-.5-.7-.2-1.37,.49-1.53,1.19,1.14,.9,1.83,1.68,2.42,2.97,.27,.6,.2,1.3-.2,1.83-3.54,4.69-9.43,9.47-10.53,11.49-1.18,2.16-2.57,3.87-2.94,6.69-.49,3.79,1.1,7.51-.71,10.27-3.09,4.73-11.2,6.91-13.97,11.83-1.29,2.3-1.38,5.14-.7,7.69s2.05,4.86,3.56,7.02c3,4.31,7.08,8.45,11.88,9.87-.33,.87-1.58,1.24-2.48,1.48-1.33,.36-2.8,.47-3.55,2.02-.3,.63-.36,1.36-.24,2.05,.65,3.58-.73,4.85-.87,7.52-.05,.86-.05,1.83,.58,2.42,.43,.4,1.04,.52,1.55,.81,1.5,.87,1.63,3.02,1.16,4.69-.83,2.93-3.64,4.72-5.98,6.68s-4.22,4.18-6.65,6.01c-6.66,5.01-12.12,11.91-16.35,18.56-5.05,7.93-10.7,15.69-17.42,20.97-.66,.52-1.47,.8-2.31,.8-9.82,.03-20.02-3.53-29.3-6.93-9.29-3.41-18.94-6.63-26.98-3.55-.67,.25-1.4,.24-2.03-.09-10.59-5.53-22.77-7.87-33.06-11.09-2.21-.69-3.55-.95-5.83-1.31-2.65-.42-5.65-.79-6.3-2.15-.18-.38-.4-.74-.73-.98-4.22-3.06-9.3-4.95-14.51-4.67-.76,.04-1.49,.26-2.2,.53-.66,.25-2.01,.52-2.49,.74-.26,.12-.56,.16-.85,.11-6.99-1.25-10.92-6.64-16.45-11.36-5.26-4.48-10.59-9.44-17.65-12.28-1.02-.41-2.17-.18-2.99,.55-1.28,1.15-3.18,2.28-4.67,1.75-1.98-.71-3.41-2.45-4.5-4.25-1.11-1.84-3.14-3.48-4.51-5.12-2.11-2.51-4.91-4.36-8.1-5.12-2.87-.68-5.8-1.21-8.24-1.77-.5-.11-.94-.37-1.29-.75-5.29-5.68-10.52-12.24-17.54-15.54-5.77-2.71-12.63-3.99-18.21-7.28-9.31-5.49-18.63-9.34-29-12.4-3.84-1.13-9.71-1.22-11.55,2.49-8.78-3.05-15.7-9.41-23.38-14.65s-14.6-9.18-23.9-8.97c-4.71,.11-11.27,1.97-15.81,.69-3.06-.87-4.65-3.86-7.16-5.8-1.56-1.21-4.93-2.32-6.11-3.66-1.64-1.87-4.11-4.94-9.3-6.27-2.64-.68-3.06-3.63-5.02-3.27-3.65,.68-4.93-1.65-7.28-3.45-2.44-1.87-5.76-2.59-6.95-5.35-3.4-7.88-8.73-19.03-17.08-24.3-4.25-2.68-10.51-2.27-14.67-5.1-4.19-2.85-6.35-7.88-8.24-12.88-1.68-4.43-6.5-4.49-7.77-6.05-.89-1.1-2-2.85-2-2.85,0,0,1.08,1.46,2.49,1.71,.83,.15,.88-4.37,1.16-4.32,1.14,.78,3.28,2.62,4.22,1.81,.36-.31-.32-4.42-.92-6.02-.17-.46-.68-.68-1.14-.51l-2.61,1.29c-.36,.18-.78-.04-.86-.43l.22-2.04c.02-.21-.15-.38-.36-.37l-1.33,.11c-.2,.02-.35,.18-.36,.38l-.03,1.26c.03,.69-1.39,2.03-1.54,1.51-.04-.14-.29-1.16-.29-1.16"/>
      <g>
        <path class="cls-2" d="M169.1,486.45c.56-.08,.77-.85,.56-1.37s-.69-.9-1.05-1.34c-.83-1.01-1.06-2.42-.91-3.72s.65-2.53,1.15-3.75c.37,.96,1.63,1.38,2.6,1.04s1.66-1.25,1.98-2.24,.34-2.03,.35-3.06l.1-8.4c.01-1.03,.04-2.13,.59-3,.42-.66,1.08-1.12,1.72-1.57,1.14-.81,2.26-1.67,3.09-2.79s1.35-2.53,1.16-3.91c-.3-2.1-2.12-3.61-3.03-5.52-.9-1.87-.87-4.17,.07-6.02s2.78-3.22,4.44-3.85c1.6-2.86,2.49-6.12,2.56-9.4,.04-1.63-.07-3.44,.98-4.7,.78-.94,2.02-1.33,3-2.04,1.63-1.19,2.49-3.36,2.1-5.34-.45-2.33-2.34-4.05-4.06-5.69s-3.46-3.61-3.46-5.98"/>
        <path class="cls-2" d="M197.06,498.73c.55-.16,.97-.68,1.02-1.25s-.27-1.15-.78-1.41c-.36-.18-.78-.21-1.16-.33s-.77-.41-.79-.82c-.02-.37,.27-.67,.51-.95,.98-1.17,1.33-2.85,.88-4.32"/>
        <g>
          <path class="cls-2" d="M232.57,521.22c-.72-1.55-.44-3.37,.04-5s1.16-3.25,1.2-4.95c.03-1.03-.18-2.08,.06-3.08,.34-1.43,1.5-2.48,2.53-3.52,1.97-2,3.67-4.29,4.81-6.86s1.69-5.42,1.38-8.21c-.06-.53-.2-1.14-.68-1.38-.63-.33-1.35,.19-2,.48-1.08,.47-2.42,.25-3.1-.24-2.26-2.03-2.54-5.46-4.21-8-1.5-2.29-4-3.69-6.06-5.5-2.19-1.93-3.91-4.38-4.98-7.09-.51-1.29-.95-2.73-2.1-3.5-.9-.59-2.18-.74-2.69-1.69-.81-1.51,1.18-3.24,.81-4.91-.3-1.37-1.93-1.88-3.12-2.63-2.33-1.46-3.32-4.71-1.93-6.96-1.66-2.21-4.13-3.94-4.93-6.58-.7-2.3,.06-4.79,1.06-6.98s2.27-4.31,2.82-6.38c-.04,.68,.88,1.05,1.52,.82s1.09-.81,1.62-1.24,1.32-.72,1.88-.32c.37,.27,.53,.79,.94,.99,.56,.28,1.21-.2,1.56-.73s.6-1.17,1.16-1.45c.67-.34,1.48-.03,2.23-.08,1.22-.08,2.15-1.1,2.9-2.07,2.23-2.87,4.18-5.95,5.81-9.26,2.07-.56,3.67-2.53,3.79-4.67,.05-.8-.08-1.65,.31-2.35,.32-.58,.93-.93,1.46-1.33,2.07-1.57,3.13-4.38,2.76-7.21,3.36,0,6.69-1.68,8.67-4.39,1.67-2.29,2.62-5.42,5.23-6.54,2.98-1.28,6.79,.74,9.52-1.02,1.13-.72,1.83-1.97,2.93-2.73,1.49-1.03,3.66-.95,5.12,.43,2.31-1.04,5.19-.66,7.15,.94,.72,.59,1.43,1.36,2.36,1.36,.6,0,1.14-.34,1.63-.68,1.55-1.07,2.99-2.28,4.32-3.62l-3.18-.87c2.16-1.42,3.54-3.97,3.55-6.56,0-3.58-2.4-6.82-2.49-10.4-.02-.83,.08-1.68-.11-2.48s-.81-1.59-1.64-1.65c-1.01-.07-1.79,.97-1.95,1.97-.16,1.01,.15,2.14,.95,2.79s2.1,.66,2.79-.09"/>
          <path class="cls-2" d="M286.2,383.25c1.36-.77,2.44-1.99,3.04-3.43,.19-.46,.36-.97,.78-1.25,.49-.33,1.19-.19,1.66,.16s.78,.89,1.07,1.4l1.62,2.85c.25,.43,.5,.9,.45,1.4-.05,.45-.34,.82-.62,1.17l-4.29,5.42"/>
          <path class="cls-2" d="M239.61,399.5c-2.53-1.04-4.66-2.93-6.3-5.12s-2.83-4.69-3.85-7.23c-.46-1.14-.88-2.3-1.02-3.52-.18-1.58,.14-3.17,.21-4.76,.19-4.1-1.36-8.26-4.22-10.97,3.44-6.02,10.06-9.53,14.3-15.02,1.95-2.52,3.54-5.58,6.45-6.9l9.86-4.64c1.25-.59,2.51-1.18,3.59-2.04s1.98-2.02,2.26-3.37c.22-1.08,.04-2.2,.17-3.3s.73-2.28,1.8-2.52"/>
          <path class="cls-2" d="M224.39,367.7c-.5,1.37-1.44,2.54-2.48,3.57s-2.19,1.93-3.24,2.94c-.73,.71-1.44,1.49-2.37,1.91-1.35,.61-2.92,.35-4.4,.26-.44-.03-.9-.04-1.28,.17-.31,.16-.53,.44-.75,.71l-2.07,2.59s.47,2.49,.45,2.46c.36-.92,1.37-1.55,2.36-1.47,1.14,.1,2.18,1.02,3.3,.79,.8-.16,1.36-.87,1.82-1.54,1.44-2.08,2.7-4.3,3.75-6.61"/>
          <path class="cls-2" d="M213.58,381.58c1.24,.87,2.48,1.75,3.83,2.43s2.83,1.16,4.35,1.18c1.16,.02,2.3-.23,3.45-.32s2.37,0,3.35,.61"/>
          <path class="cls-2" d="M207.76,379.79c-2.23,1.21-4.81,1.78-7.51,2-5.1-2.36-10.79-3.45-16.4-3.16-2.06,.11-4.51,.24-5.76-1.41-.6-.79-.76-1.82-1.23-2.69-.91-1.69-2.84-2.56-4.68-3.11s-3.81-.95-5.32-2.15"/>
        </g>
        <path class="cls-2" d="M45.68,425.18c-.46-1.91,.85-3.95,2.66-4.72s3.93-.46,5.7,.37,3.28,2.15,4.75,3.44l12.74,11.19c1.93,1.69,4.25,3.5,7.03,3.5,1.87-1.76,3.78-3.54,6.1-4.64s5.15-1.43,7.42-.22c1,.53,1.94,1.37,3.07,1.35,1.76-.03,3.27-2.13,4.91-1.5,1.12,.43,1.58,1.96,3.03,1.8,.72-.08,1.35-.55,1.71-1.17,1.08-1.84,.2-4.22,1.21-6.03,.69-1.24,2.09-1.87,3.29-2.62,.64-.4,1.59-1.27,2.09-1.75,.61-.58,1.51-.66,2.24-.23,2.93,1.74,6.89,1.54,10.25,3.15,1.82,.87,3.29,2.31,4.99,3.39,2.3,1.46,5.02,2.26,7.75,2.26,2.5,0,4.95-.65,7.37-1.29,3.23-.86,6.49-1.73,9.45-3.27,1.29-.67,2.66-1.49,4.09-1.26,.93,.15,1.74,.73,2.66,.91s2.13-.37,2.06-1.31"/>
        <path class="cls-2" d="M12.6,358.68c.5,.36,1,.73,1.46,1.38,1.69-1.04,3.79,.13,5.63,.87,1.97,.79,4.15,1.05,6.26,.75,1.02-.14,2.04-.42,3.06-.28s2.07,.83,2.18,1.86c.05,.43-.07,.87,.05,1.28,.19,.66,.92,1.02,1.6,1.13s1.39,.05,2.05,.26c1.63,.52,2.31,2.38,3.16,3.88,1.47,2.61,4.07,4.56,6.66,5.28,.86,.01,1.6,.57,2.21,1.17s1.15,1.3,1.9,1.72c.66,.37,1.45,.51,2.06,.96,.6,.44,.96,1.12,1.29,1.79l1.12,2.19c.07,.14,.14,.32,.04,.44-.11,.13-.31,.08-.46,0-1.16-.55-2.39-3.03-1.94-2.71,.31,.22,1.36,.62,2.18,.55,.42-.04,.81-.22,1.22-.28,1.03-.13,2,.57,2.64,1.38s1.1,1.78,1.82,2.53,1.85,1.26,2.51,.92c2.34-.32,4.12-2.21,5.61-4.05s3.02-3.85,5.27-4.59c1.3-.43,2.7-.38,4.07-.32l13.4,.55"/>
        <g>
          <path class="cls-2" d="M240.6,523.28c.16-.85,1.05-2.59,1.55-3.86,.24-.6,.65-1.34,1.29-1.34,3.12,0,6.77-5,8-9.7,.19-.73,.99-1.12,1.69-.83,1.03,.43,2.27,.94,3.36,.6,1.63-.51,2.98-1.63,4.28-2.73l7.69-6.48c.76-.64,1.56-1.3,2.53-1.54,1.06-.26,2.17,.01,3.22,.29l5.46,1.42c.97,.25,1.96,.5,2.95,.35,2.33-.37,4.72-2.3,6.8-3.41,1.66-.89,3.01-1.59,3.66-3.4,.36-1,.15-2.16-.58-2.94-1.64-1.76-3.91-1.79-6.06-2.08-1.27-.17-2.43-.93-2.98-2.08-.98-2.07-4.41-3.28-3.46-5.47,.84-1.94,2.81-3.28,3.04-5.38,.2-1.83,.11-2.5,.64-4.26,.21-.69,.61-1.32,1.18-1.77,5.64-4.53,11.18-7.94,16.48-14.1,1.59-1.84,3.86-3.48,5.23-5.87s4.14-3.68,5.96-2.63c.33,.19,.73-.05,.72-.43-.01-.98,.07-1.97-.02-2.95,2.71-.26,3.88-3.52,4.36-6.2s1.35-5.94,4-6.56"/>
          <path class="cls-2" d="M288.93,488.05c.7-.28,1.41-.56,2.16-.58s1.56,.25,1.97,.87c.21,.32,.32,.72,.62,.97,.26,.22,.63,.27,.97,.22s.66-.19,.98-.31c2.77-1.12,5.8-1.58,8.68-1.67,2.72,.82,5.63,1.65,8.35,.8,.8-.25,1.49-.93,2.23-.55,.32,.16,1.15,.55,1.45,.75,.67,.45,2.06-.32,2.74-.35,3.7-.15,4.98-.63,8.04-1.12"/>
        </g>
        <g>
          <path class="cls-2" d="M336.93,568.65c.59-3.13,.45-6.39-.4-9.45,.89-2.38-.87-5.05-.27-7.52,.3-1.26,1.17-2.28,1.86-3.38s1.2-2.46,.68-3.42c.8-2.35,.49-5.05-.81-7.17-.61-.99-1.45-2.15-.92-3.18,.19-.37,.54-.64,.87-.89l2.97-2.26c.83-.63,1.96-1.28,2.84-.73,.71,.45,.82,1.43,.75,2.27s-.21,1.74,.23,2.46c.56,.91,1.94,1.06,2.83,.48s1.34-1.69,1.52-2.34c-1.08-1.91-1.2-4.34-.29-6.33,.86-1.89,2.5-3.29,4.1-4.34l-5.24-4.35c-.26-.22-.54-.46-.6-.79-.14-.75,.8-1.18,1.52-1.4,2.15-.65,4.13-1.87,5.68-3.5,.98-1.03,1.99-2.32,3.41-2.34,.51,0,1,.17,1.51,.16s1.08-.26,1.46-.5c-1.16-1.77-1.56-4.03-.91-5.94-1.2-.47-2.02-1.64-2.4-2.87s-.38-2.55-.38-3.84c0-2.49,.03-5.1,1.22-7.28,.52-.95,1.24-1.78,1.78-2.73s.89-2.08,.57-3.11c-.46-1.52-2.47-2.32-3.85-1.54-.83,.47-1.34,1.34-2.07,1.94s-1.99,.83-2.53,.06c-.83-1.18,.99-2.66,.76-4.09-.14-.83-.92-1.36-1.54-1.92s-1.14-1.51-.67-2.2c.41-.59,1.27-.58,1.95-.82,1.65-.59,2.2-2.72,3.66-3.7,.93-.62,2.15-.72,2.99-1.44,1.16-1,1.2-2.8,2.16-3.99,1.19-1.48,3.36-1.6,5.19-1.79,6.67-6.16,14.93-10.56,24.16-12.75-.59-1.76,.33-3.74,1.74-4.95s3.23-1.79,5-2.36l9.31-2.96c2.41-.77,4.96-1.62,6.6-3.55,1.59-1.86,2.55-4.8,5.15-5.13,5.41-6.36,8.13-14.95,7.3-23.18-5.62-2.38-10.86-5.66-15.26-9.89-.69,.39-1.51,.55-2.28,.64l-5.66-4.33c-.4-.31-.83-.63-1.34-.66-1.25-.08-1.9,1.5-3.02,2.05-.75,.36-1.66,.21-2.41-.16s-1.37-.95-2.01-1.47c-3.81-3.1-8.84-4.64-13.43-4.17-1.24-.19-2.45,.33-3.65,.68s-2.63,.47-3.57-.35c-.37-.33-.62-.77-.87-1.2-1.5-2.66-3-5.31-4.98-8.07-1.22-.08-2.24-.97-2.99-1.94s-1.35-2.07-2.26-2.89c-2.19-1.97-5.52-1.81-8.26-2.9-.86-.34-1.8-1.09-1.58-1.99,.23-.95,1.54-1.12,2.47-.84,1.55,.47,2.86,1.68,3.47,3.18"/>
          <path class="cls-2" d="M380.4,392.02c4.63-.15,6.11-1.04,9.21-.57s6.22,1.24,9.35,.91"/>
        </g>
        <path class="cls-2" d="M386.07,578.89c.69-1.37,.02-3.03-.84-4.3s-1.94-2.5-2.11-4.03c-.15-1.36,.44-2.81-.12-4.05-.59-1.31-2.17-1.77-3.47-2.38-4.35-2.04-6.62-6.8-8.55-11.19"/>
        <path class="cls-2" d="M432.05,486.23l5.43-6.38c.69-.81,1.44-1.66,2.46-1.93,1.05-.28,2.15,.1,3.24,.09,1.32-.01,2.57-.59,3.76-1.17,2.6-1.24,5.21-2.49,7.63-4.06,5.12-3.33,9.58-8.17,15.57-9.32,1.57-.3,3.29-.37,4.55-1.35,.74-.58,1.23-1.4,1.78-2.16,.6-.83,1.29-1.59,2.06-2.27,.36-.32,.47-.45,.95-.33,.81,.19,.56,.83,.06,1.92-.35,.76-2.11,.71-2.93,.55"/>
        <path class="cls-2" d="M500.11,353.47l-12.84,1.42c-.92,.1-1.88,.2-2.73-.16-.76-.32-1.38-.98-2.19-1.13-.88-.16-1.74,.34-2.6,.57-1.48,.39-3.04,.01-4.53-.37l-4.13-1.06c-.37-.1-.8-.25-.9-.62-.09-.32,.13-.64,.21-.96,.16-.67-.27-1.33-.61-1.93-1.11-1.95-1.43-4.33-.87-6.5"/>
        <path class="cls-2" d="M469.92,293.04c-.89,.6-1.05,1.87-.88,2.94s.59,2.11,.51,3.19c-.1,1.35-.96,2.53-1.94,3.46s-2.13,1.69-3.05,2.68c-2.95,3.18-3.26,8.3-6.54,11.14-2.15,1.86-5.29,2.44-7.13,4.62-.98,1.16-1.67,2.81-3.15,3.16-1.01,.24-2.26-.18-3.01,.55-.69,.67-.41,1.81-.13,2.73s.44,2.12-.35,2.66c-.55,.38-1.31,.23-1.94,.47-1.07,.4-1.43,1.71-2.18,2.57-.73,.83-1.92,1.24-3,1.02s-2.03-1.04-2.37-2.33c-1.37,1.39-2.75,2.8-4.42,3.82s-3.66,1.64-5.58,1.3c-1.02-.18-1.99-.62-3.02-.72-2.48-.22-4.75,1.68-5.78,3.94s-1.11,4.83-1.21,7.31-.27,5.06-1.45,7.25-3.67,3.88-6.1,3.33"/>
        <path class="cls-2" d="M440.51,332.96c-.58,.59-.44,1.62,.07,2.27s1.29,1.02,2.03,1.39,1.5,.79,1.94,1.49c.69,1.1,.37,2.57-.3,3.69s-1.62,2.04-2.3,3.15c-1.32,2.18-1.4,4.85-1.65,7.39s-.83,5.27-2.77,6.91"/>
        <path class="cls-2" d="M438.93,280.83c-1.91,1.66-1.71,4.68-2.89,6.92-1.96,3.74-7.28,4.62-9.34,8.3-1.83,3.26-.54,7.78-2.76,10.92-2.03-.32-4.03,.62-5.77,1.72s-3.41,2.39-5.39,2.9c-1.37,.35-2.82,.31-4.16,.77-1.7,.58-3.04,1.9-4.58,2.83-3.06,1.85-6.79,2.12-9.81,2.12-4.06,1.69-8.53,2.41-12.92,2.08-2.72-.21-5.4-.81-8.06-1.4-1.38-.31-2.77-.62-4.13-1.03-2.22-.68-4.38-1.62-7.35-2.26-2.26,.94-4.91,.49-7.11-.61s-4.03-2.77-5.88-4.38c-.7-.61-1.5-1.24-2.42-1.19-1.19,.06-2,1.19-3.05,1.75-1.38,.73-3.05,.41-4.6,.5s-3.38,1.02-3.34,2.58c.06,2.17,3.58,2.99,3.58,5.16,0,.95-.74,1.76-1.56,2.23s-1.76,.74-2.58,1.22c-2.51,1.46-3.41,4.57-5,7-1.51,2.31-3.7,4.07-5.46,6.19-2.08,2.49-3.53,5.43-5.31,8.14s-4.01,5.3-7.01,6.53"/>
        <path class="cls-2" d="M361.31,314.46c.78,1.31-.69,2.8-.99,4.29-.26,1.31,.43,2.63,1.27,3.68,1.14,1.42,2.62,2.62,3.32,4.31,1.41,3.41-.88,7.18-1,10.87-.09,2.82,1.11,5.52,1.39,8.33,.47,4.85-2.1,9.86-6.32,12.3"/>
        <path class="cls-2" d="M418.97,267.05c-1.05,2.54-4.46,2.8-6.92,4.02-2.23,1.1-3.81,3.15-5.31,5.13l-5.24,6.91c-2.88,3.8-5.8,7.67-7.57,12.1,0,0-5.25,.61-7.7,.9-.61,.07-1.16-.41-1.14-1.03,.03-.78,0-1.56-.24-2.3-.35-1.11-1.25-2.13-2.41-2.26-.88-.1-1.72,.32-2.58,.47-2.32,.4-4.51-1.06-6.41-2.45"/>
        <path class="cls-2" d="M364.32,232.07c-37.35,14.57-75.38,27.41-113.92,38.47,0,0-4.04,3.57-4.76,3.57-8.52,1.58-17.25,2.05-25.89,1.39"/>
        <path class="cls-2" d="M238.36,275.64c-.35,1.86-.86,3.95-2.5,4.88-.67,.37-1.49,.53-1.98,1.12-.6,.71-.49,1.77-.33,2.69,.45,2.72,.9,5.44,1.16,7.99,1.19,1.82,1.64,4.11,1.24,6.25-.14,.74-.37,1.51-.09,2.21,.37,.9,1.42,1.26,2.14,1.9,.83,.73,1.24,1.92,1.03,3.01-.11,.6-.43,1.2-.96,1.5s-1.3,.23-1.66-.27c-.45-.61-.13-1.48,.31-2.09s1.02-1.19,1.11-1.93"/>
        <path class="cls-2" d="M234.83,292.22c-1.12,.23-1.87,1.28-2.41,2.29-1.7,3.22-2.4,6.96-1.96,10.58,0,0-8.61,9.82-8.7,10.14,.11,1.03-.18,2.1-.78,2.94-.12,.17-.27,.35-.47,.43-.38,.16-.83-.05-1.07-.39-.41-.58-.29-1.37-.12-2.05,.12-.46,.25-.92,.4-1.38,.1-.31,.27-.66,.59-.7,.34-.04,.59,.3,.72,.61s.24,.68,.54,.83"/>
        <path class="cls-2" d="M365.2,232.06c-3.31,.68-6,3.05-8.36,5.47s-4.65,5.04-7.69,6.52c-.81,.39-1.67,.7-2.4,1.21s-1.36,1.29-1.42,2.18c-.06,.92,.49,1.8,.39,2.72-.13,1.26-1.37,2.06-2.43,2.76-3.51,2.33-6.37,5.64-7.91,9.33-2.33,3.35-6.41,4.94-9.59,7.5-4.84,3.88-7.49,9.86-11.77,14.35-2.09,2.19-4.55,4-6.99,5.8-1.81,1.34-3.63,2.67-5.32,4.16-1.83,1.61-3.53,3.42-4.63,5.58"/>
        <path class="cls-2" d="M329.34,199.2c-1.1-.54-2.46,.01-3.31,.9s-1.33,2.04-1.97,3.08c-1.21,1.97-3.02,3.58-5.13,4.54-.77,.35-1.59,.63-2.24,1.18s-1.07,1.48-.73,2.26c.69,1.61,3.69,1.15,4.17,2.84,.37,1.33-1.24,2.25-2.08,3.35-1.24,1.63-.81,4.06-1.94,5.77-1.39,2.12-4.41,2.2-6.94,2.06,0,0-10.32,.59-10.8,.6-1.71,4.22-4.6,7.96-8.44,10.55l-1.54-1.76c-.26-.3-.54-.61-.92-.71-.5-.13-1.01,.14-1.41,.46s-.77,.71-1.19,.83c-.43,.58-1.28,.56-2,.52s-1.6,.02-1.93,.66c-.28,.54-.02,1.29-.42,1.76-.39,.47-1.21,.37-1.58,.85-.32,.42-.13,1.02-.04,1.54,.22,1.18-.2,2.46-1.05,3.28-2.75,1.27-4.6,3.87-6.33,6.35l-5.84,8.4c-2.19,3.16-4.59,6.48-8.17,7.9-1.57,.62-3.44,.94-4.41,2.33-.62,.9-.72,2.04-.79,3.13-.07,1.09-.01,2.43,.88,2.76,.61,.66,.39,1.73-.03,2.52s-1.03,1.54-1.09,2.44c-.07,1.1,.71,2.19,.42,3.26-.27,.99-1.34,1.52-1.87,2.4-.69,1.13-.26,2.8,.92,3.23,.54,.66,1.33,1.06,2.11,1.4s1.6,.64,2.43,1.21c-.67,.69-1.51,1.19-2.34,1.68l-5.02,2.96c-.49,.29-1.02,.62-1.22,1.16-.22,.6,.05,1.29,.49,1.75s1.03,.76,1.58,1.08c1.74,1.01,3.27,2.38,3.95,4.11,.03,.49-.32,.95-.78,1.12s-.99,.04-1.39-.25-.66-.73-.81-1.19c-.08-.27-.13-.55-.07-.82s.26-.52,.54-.58c.22-.05,.46,.03,.67,.12,.67,.31,1.26,.79,1.69,1.38"/>
        <path class="cls-2" d="M310.89,225.12c-.36,1.37-1.23,2.6-2.41,3.4-.9,.6-2,1-2.57,1.92-.79,1.28-.26,3.17-1.3,4.27-.42,.45-1.05,.69-1.37,1.22-.45,.76-.05,1.73-.02,2.61,.04,.92-.37,1.84-1.06,2.44s-1.67,.86-2.57,.7"/>
        <path class="cls-2" d="M283.34,220.82c-4.47,4.25-8.8,8.65-12.99,13.18"/>
        <path class="cls-2" d="M322.69,183.54c-4.19-.29-8.22,1.5-12.04,3.25-1.79,.82-3.64,1.68-4.93,3.18-.72,.83-1.26,1.85-2.16,2.49-.84,.59-1.9,.77-2.9,1.03-2.81,.73-5.42,2.26-7.44,4.35"/>
        <path class="cls-2" d="M278.45,170.21c-1.39,1.01-2.87,2.14-3.39,3.78-.6,1.92,.27,4.01-.03,5.99-.39,2.53-2.54,4.36-4.56,5.94-3.17,2.49-6.33,4.99-9.4,7.47-2.38,1.8-5.84,1.28-8.46,2.7-1.61,.87-2.74,2.4-3.91,3.81-3.05,3.71-6.63,6.99-10.52,9.44-.49,.31-.9,.72-1.24,1.18-2.6,3.54-6.83,5.81-11.19,5.9-1.01,.02-1.99,.29-2.81,.88-.89,.63-1.93,1.06-2.99,1.38-1.51,.46-3.08,.72-4.56,1.28-2.58,.98-4.81,2.88-6.36,5.28-.2,.32-.43,.62-.7,.88-1.04,1.02-2.13,1.97-3.27,2.87"/>
        <path class="cls-2" d="M105.3,53.4c-.67,.83-1.35,1.65-2.01,2.59-.84-.43-1.93-.11-2.59,.56s-.96,1.63-1.08,2.57-.07,1.89-.15,2.83c-.18,2.18-1.07,4.29-2.57,5.71-.27,1.17,.53,2.4,.27,3.57-.16,.73-.7,1.32-1.19,1.89s-.97,1.23-.85,1.88c-2.13,9.31-.89,19.02-1.1,28.57-.03,1.45-.11,2.96-.82,4.23l-1.07,2.46"/>
        <path class="cls-2" d="M237.41,209.73c.67,1.47,.37,3.2-.22,4.7s-1.46,2.88-1.97,4.41c-.99,2.96-.56,6.27-1.72,9.17-1,2.5-3.06,4.4-5.16,6.09s-4.33,3.28-5.91,5.46"/>
        <path class="cls-2" d="M86.75,26.09s1.02,.91,1.53,1.26c-1.45,2.69-3.73,4.93-6.45,6.32-.54,.28-1.26,.5-1.71,.09-.26-.24-.34-.64-.26-.99s.26-.66,.46-.96c1.6-2.43,3.81-4.5,6.43-5.71Z"/>
        <path class="cls-2" d="M143.92,83.32l-3.62,4.89c-.36,.49-.8,1.02-1.4,1.05-.7,.04-1.3-.64-2-.6-.55,.03-.98,.49-1.34,.91-2.57,3.02-5.18,6.1-6.79,9.73-1.25,2.82-1.92,5.99-3.96,8.29-1.26,1.42-2.94,2.39-4.36,3.65s-2.65,3-2.55,4.86c-1.56,4.6-4.36,8.77-8.02,11.96"/>
        <path class="cls-2" d="M155.78,92.95c-4.38,2.34-7.8,6.41-9.47,11.29-.76-.3-1.62,.12-2.21,.69s-1.02,1.29-1.65,1.81c-1.35,1.11-3.35,1.08-4.79,2.08-2.51,1.74-2.28,5.68-4.39,7.89-.87,.91-2.07,1.44-2.98,2.32-1.06,1.02-1.65,2.42-2.24,3.76-2.45,5.49-5.52,10.71-8.99,15.42-2.72,4.1-5.58,8.1-8.57,12.01"/>
        <path class="cls-2" d="M174.64,99.89c-2.51,1.63-4.38,4.2-5.17,7.08-.36,1.32-.51,2.71-1.13,3.93-1.16,2.24-3.65,3.37-5.94,4.41-1.75,.8-3.57,1.71-4.64,3.32-1.23,1.86-1.2,4.26-1.13,6.5s.07,4.64-.97,6.21l-3.07,4.98c-.22,.36-.44,.72-.55,1.12s-.1,.86,.13,1.21c0,0,.08,2.03,.17,2.24-.64,.2-1.29,.4-1.84,.79s-.99,.98-1.02,1.65c-.03,.62,.29,1.2,.36,1.81,.1,1.03-.52,1.97-.7,2.99-.23,1.34,.41,2.79,1.56,3.52,.45,.29,.97,.47,1.4,.79s.79,.83,.63,1.45c0,.68,0,1.37-.19,2.03s-.57,1.29-1.17,1.61c-.89,.48-2.1,.22-2.86,.88,0,0-3.45,3.76-3.36,3.73,1.18,3.03,2.6,5.96,4.25,8.76,.7,1.2,1.46,2.39,1.75,3.55,.18,1.07-.16,2.18-.74,3.11s-1.36,1.7-2.15,2.45"/>
        <path class="cls-2" d="M215.69,134.61c-1.58,.9-3.19,1.81-4.45,3.12s-2.16,3.09-1.98,4.9c.16,1.67,1.2,3.2,1.12,4.87-.06,1.35-.85,2.55-1.6,3.67l-3.84,5.7c.12,2.72-.99,5.48-3.27,7.1,.51,2.76-.25,5.72-2.01,7.9-.59,.73-1.32,1.43-1.51,2.35-.14,.65,.02,1.33,.18,1.97s.33,1.31,.24,1.97-.55,1.31-1.22,1.6c-.86,.05-1.44,.91-1.65,1.75s-.18,1.72-.51,2.51c-.24,.58-.66,1.07-.99,1.61s-.6,1.16-.49,1.78c.12,.65,.62,1.15,.96,1.71s.5,1.38,0,1.57c-.83,2.4-.45,5.04-.86,7.54-.64,3.95-3.15,7.29-5.59,10.46"/>
        <path class="cls-2" d="M256.53,151.56c-1.44,.87-2.22,2.49-3,3.98s-1.76,3.05-3.34,3.62c-.67,.24-1.41,.29-1.99,.7-1.04,.72-1.1,2.2-1.12,3.47s-.26,2.78-1.42,3.29c0,0-1.49,1.38-1.37,1.64-1.06-.29-2.32-.53-3.14,.19-.39,.34-.6,.85-.82,1.33-.87,1.95-2.76,4.57-3.23,5.18-.27,.36,.03,1.14-.21,1.52s-.63,.64-1,.89c-3.21,2.12-6.64,3.9-10.23,5.29"/>
        <path class="cls-2" d="M20.08,294.68c.65,.74,1.65,1.1,2.64,1.12s1.95-.3,2.83-.73c.59-.29,1.39-.58,1.8-.07,.17,.21,.2,.5,.31,.74,.41,.9,1.65,.92,2.51,1.41,.78,.45,1.22,1.3,1.53,2.14s.53,1.73,1.04,2.47c.79,1.16,2.17,1.79,3.03,2.89,.89,1.12,1.15,2.71,.54,3.72,1.87,2.59,4,4.99,6.36,7.15,.75,.69,1.63,1.39,2.65,1.39,.93,0,1.94-.59,2.74-.1,.64,.39,.75,1.28,.71,2.03s-.16,1.57,.11,2.07c.57,.03,1.15,.06,1.67,.27s.99,.65,1.09,1.21c.09,.52-.14,1.12,.17,1.55,.22,.31,.65,.39,1.03,.34s.73-.19,1.11-.25c.3-.04,.66,0,.8,.27,.17,.31-.08,.67-.3,.94-.31,.37-.63,.76-.73,1.23s.07,1.04,.54,.93c.88,.83,2.24,.85,3.45,.74s2.5-.31,3.58,.24c.66,.34,1.19,.93,1.54,1.03,.71,.21,1.43-.27,2.01-.73s1.25-.99,1.98-.86c.72,.13,1.28,.86,2.01,.79,.64-.06,1.05-.88,.73-1.43,0,0,.19-2.7,.69-2.77,1.12,.36,2.43,.01,3.21-.86,.21-.23,.38-.49,.62-.69s.56-.33,.86-.24c0,0,1.81,.47,1.73,1.27-.34,.31-.69,.62-.91,1.01s-.32,.9-.12,1.31c.25,.53,.89,.76,1.48,.74s1.13-.26,1.69-.44c3.09-.98,6.7-.08,8.48,2.13,1.58,.49,2.98,1.45,4.46,2.19s3.2,1.26,4.8,.79c.99-.29,1.83-.92,2.75-1.37s2.06-.7,3.28-.49c.95-.43,1.45-1.47,1.84-2.44s.77-2.02,1.61-2.63c.62-.44,1.48-.66,1.75-1.37,.12-.32,.09-.68,.09-1.03s.05-.72,.3-.97,.74-.24,.75,.06c1.19,.89,2.84,.69,4.31,.47s3.15-.34,4.25,.66c.76,.69,1.04,1.75,1.48,2.68s1.26,1.86,2.29,1.78l2.56-1.06s2.13,.26,2.48,.6l2.02-4.81c.11-.26,.24-.54,.5-.66,.38-.17,.79,.1,1.17,.25,1.19,.47,2.51-.24,3.56-.97,1.51-1.06,2.93-2.23,4.25-3.51,.9-.87,1.8-1.81,2.81-2.07,3.7-.29,6.54-3.29,8.84-6.2,3.81-4.81,7.24-9.93,9.98-15.08,.49-4.22,2.59-8.23,5.78-11.04l.09,.15"/>
        <path class="cls-2" d="M165.16,282.57c1.49-2.59,3.49-4.88,5.85-6.7,1.19-.92,2.49-1.74,3.38-2.96s1.26-2.96,.12-4.43c-.32,0-.64-.02-.94-.12s-.58-.31-.69-.6c-.1-.26-.06-.55-.07-.83-.03-1.09-.92-2.1-2.06-2.2,.26-1.06,.43-2.14,.49-3.23,.01-.2,.01-.42-.13-.56-.18-.18-.48-.13-.71-.01-.53,.27-.92,.78-1.15,1.34s-.33,1.15-.42,1.74c-.02,.12-.03,.26,.05,.34,.05,.05,.13,.07,.2,.08l2.17,.42"/>
        <path class="cls-2" d="M95.91,332.06c-.09,1.22-.13,2.58,.65,3.52,1.07,1.29,3.04,1.13,4.71,1.23,2.37,.15,4.68,1.09,6.48,2.64,.83,.72,1.56,1.56,2.45,2.21s2.02,1.09,3.09,.84c.72-.16,1.33-.61,1.96-.98s1.36-.69,2.08-.56,1.36,.89,1.11,1.57c3.76-1.03,7.29-2.87,10.28-5.37,.98-.82,1.99-1.75,3.26-1.92,1.8-.24,3.6,1.14,5.07,.66,2.19-.06,4.16-1.36,5.71-2.9s2.84-3.34,4.48-4.79c1.94-1.73,4.36-2.92,6.78-3.18,2.66-3.49,7.25-5.39,11.6-4.81,.48,.06,.97,.15,1.43,.04s.91-.5,1.27-1.16c1.35,.16,2.77-.35,3.7-1.35,.42-.46,.77-1.02,1.34-1.28,.53-.24,1.14-.17,1.73-.19s1.24-.18,1.66-.78c.35-1.74,1.61-3.26,3.26-3.93,.99-.4,2.07-.5,3-.39,1.99-3.08,6.32-3.9,8.48-6.86,.47-.64,.82-1.36,1.34-1.96s1.29-1.06,2.18-1.13c1.74-.54,3.29-1.65,4.37-3.11,.35-.48,.68-1.02,1.23-1.26,.47-.21,1-.16,1.51-.16s1.08-.11,1.38-.51"/>
        <path class="cls-2" d="M203.45,296.48c.51-.8,1.29-1.44,2.17-1.79,.3-.12,.64-.21,.95-.12,.3,.09,.54,.33,.67,.61s.16,.6,.14,.92c-.02,.32-.08,.65,0,.96s.37,.6,.77,.58c.79-.9,2.31-1.03,3.24-.27,.57,.47,.89,1.17,1.32,1.76s1.14,1.11,1.71,.69c.54-2.21,1.07-4.42,1.74-6.63l.3-4.04c.01-.14,.02-.29-.06-.4s-.29-.13-.34,0"/>
        <path class="cls-2" d="M216.32,288.67c-.78-.14-1.61-.11-2.34,.21s-1.33,.97-1.49,1.74c-.13,.62-.01,1.34-.42,1.61-.37,.91-.78,1.89-1.62,2.4-.23,.14-.56,.24-.76,.05-.11-.1-.15-.25-.16-.4-.05-.47,.12-.96,.45-1.3,.22-.23,.51-.39,.74-.62s.41-.55,.32-.86c-.03-.09-.08-.19-.05-.28,.03-.11,.16-.17,.27-.17s.23,.04,.34,.06c.5,.09,1.04-.29,1.12-.8"/>
        <path class="cls-2" d="M212.66,290.55c.29-1,1.29-1.63,2.28-1.97s2.05-.49,2.96-1.01c1.65-.94,2.54-2.93,4.26-3.7"/>
        <path class="cls-2" d="M17.98,275.98c4.52,.03,9.44,.86,13.54,2.42,.61,.23,1.28,.15,1.8-.24l1.86-1.41c.25-.19,.56-.39,.86-.3,.31,.1,.45,.45,.57,.76s.35,.64,.58,.88c4.87-.97,9.97,.49,14.86-.33,.41-.07,.81,.06,1.15,.3,.36,.26,.84,.39,1.29,.42,.66,.04,1.32-.08,1.99-.07,.48,0,.99,.1,1.4,.35,.23,.14,.31,.43,.23,.69-.1,.34-.06,.73,.12,1.01,2.21,1.17,4.76,1.49,7.25,1.79,1.53,.18,3.08,.37,4.61,.2,1.92-.22,3.93-.97,5.83-.19,3.12,1.23,6.33,2.48,9.69,2.48s6.93-1.55,8.36-4.58c.44-.93,.66-1.95,1.09-2.88,.32-.68,1.15-1.53,1.87-1.78,.47-.16,.86-.5,1.03-.97,.42-1.18,1.64-2.09,2.86-2.6,1.54-.64,3.26-.97,4.52-2.05,.85-.73,1.4-1.73,2.1-2.6s1.65-1.66,2.87-1.84c14.84-11.9,29.88-23.54,45.14-34.9"/>
        <path class="cls-2" d="M26.29,276.42c.42-2.42,1.67-4.68,3.49-6.33s4.2-2.67,6.68-3.01c.56-.67,1.37-1.11,2.23-1.22-.29,.65,.44,1.38,1.15,1.38s1.33-.45,1.89-.89c1.09-.84,2.19-1.7,3.03-2.78s1.42-2.45,1.28-3.82c-.24-2.48-2.69-4.57-2.23-7.03,.29-1.54,1.73-2.66,3.25-3.06s3.12-.21,4.38-.07c1.22-.12,2.45-.25,3.62-.6s2.31-.93,3.12-1.85c.32-.36,.61-.78,1.06-.95,.58-.22,1.21,.05,1.77,.24,1.05-2.13,3.68-2.85,6.01-3.34l8.27-1.75c1-.21,2.02-.44,2.85-1.03s1.39-1.67,1.3-2.39c-.75-2.74-.45-5.74,.81-8.28,.65-1.32,1.55-2.5,2.26-3.8s1.23-2.76,1.04-4.13c-.5-1.33-1.44-2.49-2.64-3.26-.5-.32-1.05-.57-1.51-.95s-.83-.93-.81-1.52c-.6,.13-1.16,.43-1.61,.84"/>
        <path class="cls-2" d="M81.25,218.71c.4-2.85-1.75-5.89-.51-8.49,.67-1.4,2.13-2.2,3.43-3.06,2.5-1.66,4.63-3.87,6.05-6.28,2.55-.23,5.06-.83,7.44-1.79l13.42-11.3"/>
        <path class="cls-2" d="M105.24,192.85c-1.2-.71-2.4-1.47-3.29-2.54s-1.43-2.53-1.09-3.88c.21-.82,.72-1.65,.45-2.45-.17-.5-.65-.91-.62-1.44,.03-.6,.7-1.13,.47-1.68-.22-.52-1.07-.39-1.36,.09s-.19,1.09-.08,1.64c.36,.02,.72,.16,1,.39"/>
        <path class="cls-2" d="M49.42,249.25c-1.2-1.96-2.42-3.95-3.21-6.11s-1.13-4.55-.56-6.79c.46-1.79,1.49-3.38,2.49-4.94l6.83-10.53c3.18-4.91,6.42-9.89,10.8-13.76,1.66-1.47,3.57-2.91,4.31-4.81-.03-.77,.37-1.5,.88-2.07s1.13-1.04,1.67-1.59c1.31-1.33,2.07-3.1,2.93-4.76s1.89-3.35,3.37-4.27c.7-.85,.81-2.05,.75-3.15s-.27-2.22-.07-3.31c.33-1.77,1.67-3.24,1.97-5.02"/>
        <path class="cls-2" d="M20.1,175.15c2.33,.57,4.85,.3,6.88-.82,3.98-5.69,8.38-11.08,13.16-16.11,.71-.75,1.45-1.53,1.95-2.35,.7-1.16,1.81-2.01,3.06-2.54,4.2-1.79,7.63-5.25,10.56-8.84,3.48-4.26,6.61-8.94,11.02-12.24"/>
      </g>
    </g>
  </g>
</svg>