<?xml version="1.0" encoding="UTF-8"?><svg id="b" xmlns="http://www.w3.org/2000/svg" width="652.99" height="297.31" viewBox="0 0 652.99 297.31"><g id="c"><g><path d="M53.25,94.94c6.12,0,10.5-1.25,15-3.38V58.81h16.12v43.25c-8.88,5.5-18.75,9.12-31.38,9.12-25.38,0-47.5-19-47.5-48.62S27.5,13.81,53.12,13.81c10.88,0,20.5,2.75,28,7v17.62c-8.12-5.62-17.38-8-26.12-8-18.38,0-31.62,13.62-31.62,32.38s13,32.12,29.88,32.12Z"/><path d="M119.37,15.94h56.12v15.88h-38.62v22.62h35.38v14.75h-35.38v24h38.62v15.88h-56.12V15.94Z"/><path d="M278.25,109.06h-21.38l-27.62-34.38h-1v34.38h-17.5V15.94h27.88c22.25,0,35.38,11,35.38,29.38,0,12.38-7.12,24.75-25.75,28.38l30,35.38Zm-40.75-48.12c12.62,0,18.75-5.62,18.75-14.62s-6.75-14.38-18.12-14.38h-9.88v29h9.25Z"/><path d="M387,109.06h-16.5l-44.75-65.25h-.12V109.06h-16.88V15.94h17.12l44.12,64h.12V15.94h16.88V109.06Z"/><path d="M425.74,15.94h56.12v15.88h-38.62v22.62h35.38v14.75h-35.38v24h38.62v15.88h-56.12V15.94Z"/><path d="M584.62,109.06h-21.38l-27.62-34.38h-1v34.38h-17.5V15.94h27.88c22.25,0,35.38,11,35.38,29.38,0,12.38-7.12,24.75-25.75,28.38l30,35.38Zm-40.75-48.12c12.62,0,18.75-5.62,18.75-14.62s-6.75-14.38-18.12-14.38h-9.88v29h9.25Z"/><path d="M18.62,244.44c8.62,0,14.25-5.5,14.25-16.38v-62.12h17.5v64.38c0,17.62-10.5,30.38-28.88,30.38-6.75,0-13.62-2.38-18.12-6.25v-17.5c3.88,4.25,8.88,7.5,15.25,7.5Z"/><path d="M132.5,259.06l-9.12-24.5h-36.5l-9,24.5h-18.25l35.38-93.12h20.12l35.75,93.12h-18.38Zm-40.62-39.25h26.38l-13.25-35.38-13.12,35.38Z"/><path d="M221.75,220.31h-41.75v38.75h-17.5v-93.12h17.5v38.25h41.75v-38.25h17.5v93.12h-17.5v-38.75Z"/><path d="M339.5,259.06h-16.5l-44.75-65.25h-.12v65.25h-16.88v-93.12h17.12l44.12,64h.12v-64h16.88v93.12Z"/><path d="M403.37,261.06c-25.25,0-47.38-19.12-47.38-48.62s22.12-48.62,47.38-48.62c10.75,0,18.88,2.88,25.25,6.38v17.62c-7.38-4.88-14.25-7.62-23.62-7.62-16.38,0-31.12,12.38-31.12,32.25s14.75,32.38,31.12,32.38c9.38,0,16.25-3.12,23.62-8v17.88c-6.38,3.5-14.5,6.38-25.25,6.38Z"/><path d="M500.5,259.06l-37.62-44.75v44.75h-17.5v-93.12h17.5v44.25l37.38-44.25h20.75l-39.25,46,40,47.12h-21.25Z"/><path d="M532.74,165.94h56.12v15.88h-38.62v22.62h35.38v14.75h-35.38v24h38.62v15.88h-56.12v-93.12Z"/></g></g></svg>